<svg width="31" height="36" viewBox="0 0 31 36" fill="none" xmlns="http://www.w3.org/2000/svg">
<path id="%" d="M6.03 19.37C4.45 19.37 3.16 18.85 2.16 17.81C1.16 16.77 0.66 15.35 0.66 13.55C0.66 12.37 0.89 11.34 1.35 10.46C1.81 9.58 2.44 8.91 3.24 8.45C4.06 7.97 4.99 7.73 6.03 7.73C7.63 7.73 8.93 8.26 9.93 9.32C10.93 10.36 11.43 11.77 11.43 13.55C11.43 15.35 10.93 16.77 9.93 17.81C8.93 18.85 7.63 19.37 6.03 19.37ZM18.45 8H22.77L8.43 29H4.11L18.45 8ZM6.03 16.52C6.57 16.52 7 16.28 7.32 15.8C7.64 15.32 7.8 14.57 7.8 13.55C7.8 12.53 7.64 11.78 7.32 11.3C7 10.82 6.57 10.58 6.03 10.58C5.51 10.58 5.08 10.83 4.74 11.33C4.42 11.81 4.26 12.55 4.26 13.55C4.26 14.55 4.42 15.3 4.74 15.8C5.08 16.28 5.51 16.52 6.03 16.52ZM20.85 29.27C19.25 29.27 17.95 28.75 16.95 27.71C15.97 26.67 15.48 25.25 15.48 23.45C15.48 21.67 15.98 20.26 16.98 19.22C17.98 18.16 19.27 17.63 20.85 17.63C22.45 17.63 23.75 18.16 24.75 19.22C25.75 20.26 26.25 21.67 26.25 23.45C26.25 25.25 25.75 26.67 24.75 27.71C23.75 28.75 22.45 29.27 20.85 29.27ZM20.85 26.42C21.39 26.42 21.82 26.18 22.14 25.7C22.46 25.22 22.62 24.47 22.62 23.45C22.62 22.43 22.46 21.68 22.14 21.2C21.82 20.72 21.39 20.48 20.85 20.48C20.31 20.48 19.88 20.72 19.56 21.2C19.24 21.68 19.08 22.43 19.08 23.45C19.08 24.47 19.24 25.22 19.56 25.7C19.88 26.18 20.31 26.42 20.85 26.42Z" fill="white"/>
</svg>
